<?xml version="1.0" encoding="UTF-8"?>
<!DOCTYPE svg PUBLIC "-//W3C//DTD SVG 1.1//EN" "http://www.w3.org/Graphics/SVG/1.1/DTD/svg11.dtd">
<svg xmlns="http://www.w3.org/2000/svg" xmlns:xlink="http://www.w3.org/1999/xlink" version="1.1" width="186px" height="164px" viewBox="-0.5 -0.5 186 164" style="background-color: rgb(255, 255, 255);"><defs/><g><rect x="40" y="83" width="40" height="20" rx="3" ry="3" fill="rgb(255, 255, 255)" stroke="rgb(0, 0, 0)" transform="rotate(-90,60,93)" pointer-events="all"/><rect x="125" y="83" width="40" height="20" rx="3" ry="3" fill="rgb(255, 255, 255)" stroke="rgb(0, 0, 0)" transform="rotate(-90,145,93)" pointer-events="all"/><rect x="0" y="103" width="185" height="60" fill="rgb(255, 255, 255)" stroke="rgb(0, 0, 0)" pointer-events="all"/><rect x="25" y="118" width="30" height="30" fill="rgb(255, 255, 255)" stroke="rgb(0, 0, 0)" pointer-events="all"/><rect x="80" y="118" width="30" height="30" fill="rgb(255, 255, 255)" stroke="rgb(0, 0, 0)" pointer-events="all"/><path d="M 60 74 L 61 74 L 61.4 73.4 L 61.14 72.57 L 60.75 72.13 L 60.63 71.5 L 60.63 70.88 L 60.63 70.12 L 60.63 69.37 L 60.75 68.75 L 61.13 68.12 L 61.63 67.5 L 62.25 66.87 L 62.5 66.13 L 62.5 65.25 L 62.62 64.38 L 63 63.5 L 63.38 62.37 L 63.62 61.25 L 63.87 60 L 64 58.63 L 64.25 57.38 L 64.5 56.13 L 64.5 54.87 L 64.25 53.62 L 64 52.5 L 63.75 51.38 L 63.5 50.38 L 63.5 49.38 L 63.38 48.25 L 62.88 47 L 62.25 45.87 L 61.5 44.75 L 60.63 43.63 L 59.75 42.38 L 58.87 41.12 L 58 40 L 57.38 38.87 L 57.12 37.88 L 57 36.75 L 56.5 35.5 L 55 34 L 53.25 32.62 L 51.5 31.25 L 49.75 29.88 L 48.13 28.63 L 46.88 27.37 L 45.75 26.25 L 45.5 25.12 L 46.75 24.25 L 48.87 23.25 L 51.5 22.38 L 54.25 21.5 L 57 20.5 L 59.62 19.5 L 62 18.37 L 63.75 17.37 L 64.5 16.5 L 64.5 15.75 L 64 14.88 L 63.38 13.88 L 62.62 12.87 L 61.63 11.87 L 60.75 10.87 L 60.12 9.87 L 60 8.75 L 60 7.63 L 59.88 6.5 L 59.75 5.5 L 59.67 4.5 L 59.5 3.5 L 59 2.5" fill="none" stroke="rgb(0, 0, 0)" stroke-miterlimit="10" pointer-events="all"/><path d="M 61 71 L 61.67 71 L 63.4 69.8 L 65.57 65.86 L 66.25 64.38 L 67.5 62.13 L 68.62 59.75 L 69.5 57.5 L 70.25 55.25 L 71 52.88 L 71.62 51.38 L 72.25 49.75 L 72.87 47.87 L 73.25 45.62 L 72.87 42.87 L 72.25 40.25 L 71.5 37.62 L 70.5 35.25 L 69.25 33.12 L 68 31.25 L 66.63 29.75 L 65.5 28.63 L 65.25 27.87 L 65.87 26.62 L 67.25 25.12 L 69 23.25 L 70.63 21.37 L 72.12 19.5 L 73.75 17.5 L 75.37 15.5 L 77 13.5 L 78 11.88 L 78.25 10.5 L 78.13 9.5 L 77.88 8.63 L 77.63 7.87 L 77.25 7.25 L 76.75 6.75 L 76.33 6.17 L 75.5 6 L 74.5 6" fill="none" stroke="rgb(0, 0, 0)" stroke-miterlimit="10" pointer-events="all"/><path d="M 60 69 L 59.67 69.67 L 58.8 69.8 L 57.14 69.57 L 56.13 69 L 54.25 68.25 L 52.25 67.25 L 50.25 66.12 L 48.38 64.88 L 46.63 63.37 L 45.5 61.75 L 45 60.12 L 45.25 58.75 L 46.13 57.37 L 47.13 56 L 48.25 54.62 L 49.38 53.12 L 50.5 51.63 L 51.38 50.13 L 51.88 48.75 L 52.12 47.38 L 52.38 45.87 L 52.88 44 L 53.38 42 L 53.88 40.13 L 54.38 38.38 L 54.88 36.63 L 55.5 34.88 L 56.13 32.87 L 56.63 31 L 56.87 29.37 L 56.87 27.88 L 56.25 26.25 L 55.38 24.63 L 54.38 23.12 L 53.12 21.63 L 51.75 20.37 L 50 19.13 L 48.12 18 L 46.63 17 L 46 16.25 L 45.75 15.5 L 45.87 14.63 L 46.25 13.75 L 46.63 12.88 L 47.25 12.13 L 47.88 11.5 L 48.25 10.87 L 48.25 10.25 L 47.88 9.38 L 47.13 8.25 L 46.17 7.5 L 45 6.75 L 43.5 4.5" fill="none" stroke="rgb(0, 0, 0)" stroke-miterlimit="10" pointer-events="all"/><path d="M 56 72 L 56 71 L 56.2 70 L 57 68.71 L 57.5 67.87 L 58.25 66.38 L 59 64.62 L 59.63 62.63 L 59.88 60.75 L 59.88 58.87 L 59.75 57 L 59.5 55.25 L 59.25 53.63 L 58.88 51.87 L 58.5 50.12 L 58.25 48.38 L 58.13 46.25 L 58.13 44 L 58.38 41.63 L 59 39.13 L 60.25 36.12 L 61.88 33 L 63.63 30 L 65.38 27.25 L 67.13 24.75 L 68.88 22.38 L 70.38 20.13 L 71.38 18 L 71.63 16.37 L 71.38 15 L 70.88 13.62 L 70.25 12.37 L 69.75 11.12 L 69.13 9.88 L 68.5 8.63 L 67.88 7.38 L 67.25 6.13 L 66.75 4.88 L 66.17 3.83 L 66 2.5 L 66 1" fill="none" stroke="rgb(0, 0, 0)" stroke-miterlimit="10" pointer-events="all"/><path d="M 64 71 L 65.33 70 L 68 67.4 L 71.14 64.57 L 72.38 63.38 L 74.5 61.25 L 76.5 59 L 78.12 56.62 L 79 54.25 L 78.87 51.87 L 78.12 49.88 L 77.13 47.88 L 75.88 46 L 74.63 44.12 L 73.37 42.25 L 72.25 40.5 L 71.63 38.75 L 71.5 37.13 L 71.5 35.5 L 71.5 33.75 L 71.75 31.87 L 72.25 29.75 L 72.87 27.38 L 73.63 25 L 74.25 22.88 L 74.87 20.87 L 75.37 18.87 L 75.75 17 L 76 15.25 L 76.12 13.75 L 76.25 12.5 L 76.38 11.5 L 76.75 10.38 L 77.5 9.12 L 78.75 7.75 L 80.13 6.62 L 81.5 5.75 L 83.17 4.5 L 85.25 3.25 L 86 3.5" fill="none" stroke="rgb(0, 0, 0)" stroke-miterlimit="10" pointer-events="all"/><path d="M 61 72 L 61 71 L 61 69.8 L 60.14 67.86 L 59.62 67 L 59 65.5 L 58.38 64 L 58 62.37 L 58 60.62 L 58.13 58.88 L 58.63 57.38 L 59.37 55.88 L 60.13 53.87 L 60.75 51.75 L 61.25 49.63 L 61.5 47.63 L 61.37 45.75 L 61.12 44 L 60.87 42.12 L 60.75 40.25 L 60.87 38.63 L 61.12 36.75 L 61.5 34.5 L 61.88 32.25 L 62.25 30 L 62.75 27.37 L 63.25 24.62 L 63.63 21.88 L 63.88 19.25 L 64.13 17 L 64.37 15.13 L 64.62 13.13 L 64.87 11 L 65 9.25 L 64.87 7.75 L 64.75 6.38 L 64.67 5 L 64.5 3.5 L 64 2.5" fill="none" stroke="rgb(0, 0, 0)" stroke-miterlimit="10" pointer-events="all"/><path d="M 140.25 73 L 141.25 73 L 141.65 72.4 L 141.39 71.57 L 141 71.13 L 140.88 70.5 L 140.88 69.88 L 140.88 69.12 L 140.88 68.37 L 141 67.75 L 141.38 67.12 L 141.88 66.5 L 142.5 65.87 L 142.75 65.13 L 142.75 64.25 L 142.87 63.38 L 143.25 62.5 L 143.63 61.37 L 143.87 60.25 L 144.12 59 L 144.25 57.63 L 144.5 56.38 L 144.75 55.13 L 144.75 53.87 L 144.5 52.62 L 144.25 51.5 L 144 50.38 L 143.75 49.38 L 143.75 48.38 L 143.63 47.25 L 143.13 46 L 142.5 44.87 L 141.75 43.75 L 140.88 42.63 L 140 41.38 L 139.12 40.12 L 138.25 39 L 137.63 37.87 L 137.37 36.88 L 137.25 35.75 L 136.75 34.5 L 135.25 33 L 133.5 31.62 L 131.75 30.25 L 130 28.88 L 128.38 27.63 L 127.13 26.37 L 126 25.25 L 125.75 24.12 L 127 23.25 L 129.12 22.25 L 131.75 21.38 L 134.5 20.5 L 137.25 19.5 L 139.87 18.5 L 142.25 17.37 L 144 16.37 L 144.75 15.5 L 144.75 14.75 L 144.25 13.88 L 143.63 12.88 L 142.87 11.87 L 141.88 10.87 L 141 9.87 L 140.37 8.87 L 140.25 7.75 L 140.25 6.63 L 140.13 5.5 L 140 4.5 L 139.92 3.5 L 139.75 2.5 L 139.25 1.5" fill="none" stroke="rgb(0, 0, 0)" stroke-miterlimit="10" pointer-events="all"/><path d="M 141.25 70 L 141.92 70 L 143.65 68.8 L 145.82 64.86 L 146.5 63.38 L 147.75 61.13 L 148.87 58.75 L 149.75 56.5 L 150.5 54.25 L 151.25 51.88 L 151.87 50.38 L 152.5 48.75 L 153.12 46.87 L 153.5 44.62 L 153.12 41.87 L 152.5 39.25 L 151.75 36.62 L 150.75 34.25 L 149.5 32.12 L 148.25 30.25 L 146.88 28.75 L 145.75 27.63 L 145.5 26.87 L 146.12 25.62 L 147.5 24.12 L 149.25 22.25 L 150.88 20.37 L 152.37 18.5 L 154 16.5 L 155.62 14.5 L 157.25 12.5 L 158.25 10.88 L 158.5 9.5 L 158.38 8.5 L 158.13 7.63 L 157.88 6.87 L 157.5 6.25 L 157 5.75 L 156.58 5.17 L 155.75 5 L 154.75 5" fill="none" stroke="rgb(0, 0, 0)" stroke-miterlimit="10" pointer-events="all"/><path d="M 140.25 68 L 139.92 68.67 L 139.05 68.8 L 137.39 68.57 L 136.38 68 L 134.5 67.25 L 132.5 66.25 L 130.5 65.12 L 128.63 63.88 L 126.88 62.37 L 125.75 60.75 L 125.25 59.12 L 125.5 57.75 L 126.38 56.37 L 127.38 55 L 128.5 53.62 L 129.63 52.12 L 130.75 50.63 L 131.63 49.13 L 132.13 47.75 L 132.37 46.38 L 132.63 44.87 L 133.13 43 L 133.63 41 L 134.13 39.13 L 134.63 37.38 L 135.13 35.63 L 135.75 33.88 L 136.38 31.87 L 136.88 30 L 137.12 28.37 L 137.12 26.88 L 136.5 25.25 L 135.63 23.63 L 134.63 22.12 L 133.37 20.63 L 132 19.37 L 130.25 18.13 L 128.37 17 L 126.88 16 L 126.25 15.25 L 126 14.5 L 126.12 13.63 L 126.5 12.75 L 126.88 11.88 L 127.5 11.13 L 128.13 10.5 L 128.5 9.87 L 128.5 9.25 L 128.13 8.38 L 127.38 7.25 L 126.42 6.5 L 125.25 5.75 L 123.75 3.5" fill="none" stroke="rgb(0, 0, 0)" stroke-miterlimit="10" pointer-events="all"/><path d="M 136.25 71 L 136.25 70 L 136.45 69 L 137.25 67.71 L 137.75 66.87 L 138.5 65.38 L 139.25 63.62 L 139.88 61.63 L 140.13 59.75 L 140.13 57.87 L 140 56 L 139.75 54.25 L 139.5 52.63 L 139.13 50.87 L 138.75 49.12 L 138.5 47.38 L 138.38 45.25 L 138.38 43 L 138.63 40.63 L 139.25 38.13 L 140.5 35.12 L 142.13 32 L 143.88 29 L 145.63 26.25 L 147.38 23.75 L 149.13 21.38 L 150.63 19.13 L 151.63 17 L 151.88 15.37 L 151.63 14 L 151.13 12.62 L 150.5 11.37 L 150 10.12 L 149.38 8.88 L 148.75 7.63 L 148.13 6.38 L 147.5 5.13 L 147 3.88 L 146.42 2.83 L 146.25 1.5 L 146.25 0" fill="none" stroke="rgb(0, 0, 0)" stroke-miterlimit="10" pointer-events="all"/><path d="M 144.25 70 L 145.58 69 L 148.25 66.4 L 151.39 63.57 L 152.63 62.38 L 154.75 60.25 L 156.75 58 L 158.37 55.62 L 159.25 53.25 L 159.12 50.87 L 158.37 48.88 L 157.38 46.88 L 156.13 45 L 154.88 43.12 L 153.62 41.25 L 152.5 39.5 L 151.88 37.75 L 151.75 36.13 L 151.75 34.5 L 151.75 32.75 L 152 30.87 L 152.5 28.75 L 153.12 26.38 L 153.88 24 L 154.5 21.88 L 155.12 19.87 L 155.62 17.87 L 156 16 L 156.25 14.25 L 156.37 12.75 L 156.5 11.5 L 156.63 10.5 L 157 9.38 L 157.75 8.12 L 159 6.75 L 160.38 5.62 L 161.75 4.75 L 163.42 3.5 L 165.5 2.25 L 166.25 2.5" fill="none" stroke="rgb(0, 0, 0)" stroke-miterlimit="10" pointer-events="all"/><path d="M 141.25 71 L 141.25 70 L 141.25 68.8 L 140.39 66.86 L 139.87 66 L 139.25 64.5 L 138.63 63 L 138.25 61.37 L 138.25 59.62 L 138.38 57.88 L 138.88 56.38 L 139.62 54.88 L 140.38 52.87 L 141 50.75 L 141.5 48.63 L 141.75 46.63 L 141.62 44.75 L 141.37 43 L 141.12 41.12 L 141 39.25 L 141.12 37.63 L 141.37 35.75 L 141.75 33.5 L 142.13 31.25 L 142.5 29 L 143 26.37 L 143.5 23.62 L 143.88 20.88 L 144.13 18.25 L 144.38 16 L 144.62 14.13 L 144.87 12.13 L 145.12 10 L 145.25 8.25 L 145.12 6.75 L 145 5.38 L 144.92 4 L 144.75 2.5 L 144.25 1.5" fill="none" stroke="rgb(0, 0, 0)" stroke-miterlimit="10" pointer-events="all"/><rect x="135.01" y="122.51" width="46.87" height="23.63" fill="rgb(255, 255, 255)" stroke="rgb(0, 0, 0)" transform="rotate(-90,158.44,134.33)" pointer-events="all"/></g></svg>